<svg width="23" height="23" viewBox="0 0 23 23" fill="none" xmlns="http://www.w3.org/2000/svg">
<path d="M11.5 0.234375C5.3457 0.234375 0.359375 5.2207 0.359375 11.375C0.359375 17.5293 5.3457 22.5156 11.5 22.5156C17.6543 22.5156 22.6406 17.5293 22.6406 11.375C22.6406 5.2207 17.6543 0.234375 11.5 0.234375ZM16.9355 14.3398C17.1602 14.5195 17.1602 14.8789 16.9355 15.1035L15.1836 16.8555C14.959 17.0801 14.5996 17.0801 14.4199 16.8555L11.5 13.8906L8.53516 16.8555C8.35547 17.0801 7.99609 17.0801 7.77148 16.8555L6.01953 15.0586C5.79492 14.8789 5.79492 14.5195 6.01953 14.2949L8.98438 11.375L6.01953 8.45508C5.79492 8.27539 5.79492 7.91602 6.01953 7.69141L7.81641 5.93945C7.99609 5.71484 8.35547 5.71484 8.58008 5.93945L11.5 8.85938L14.4199 5.93945C14.5996 5.71484 14.959 5.71484 15.1836 5.93945L16.9355 7.69141C17.1602 7.91602 17.1602 8.27539 16.9355 8.45508L14.0156 11.375L16.9355 14.3398Z" fill="#DADADA"/>
</svg>
